PathFileType	4	(X/Y/Z)	output.trc
DataRate	CameraRate	NumFrames	NumMarkers	Units	OrigDataRate	OrigDataStartFrame	OrigNumFrames
100	100	12	23	m	100	4600	5257
Frame#	Time	C7			T8			EL			EM			US			RS			AA			Fore_Clus_1			Fore_Clus_2			Fore_Clus_3			Fore_Clus_4			Hum_Clus_1			Hum_Clus_2			Hum_Clus_3			Hum_Clus_4			Thor_Clus_1			Thor_Clus_2			Thor_Clus_3			Thor_Clus_4			IJ			PX			GH			Thor_Clus_5		
		X1	Y1	Z1	X2	Y2	Z2	X3	Y3	Z3	X4	Y4	Z4	X5	Y5	Z5	X6	Y6	Z6	X7	Y7	Z7	X8	Y8	Z8	X9	Y9	Z9	X10	Y10	Z10	X11	Y11	Z11	X12	Y12	Z12	X13	Y13	Z13	X14	Y14	Z14	X15	Y15	Z15	X16	Y16	Z16	X17	Y17	Z17	X18	Y18	Z18	X19	Y19	Z19	X20	Y20	Z20	X21	Y21	Z21	X22	Y22	Z22	X23	Y23	Z23
4599	45.990000	0.032415	1.661463	-0.024124	0.012890	1.428047	-0.113381	-0.303903	1.393668	-0.100094	-0.245586	1.390296	-0.139364	-0.401244	1.159779	-0.275138	-0.378450	1.120628	-0.235680	-0.143052	1.550437	0.115267	-0.416971	1.192268	-0.229469	-0.433271	1.148115	-0.257734	-0.422513	1.131416	-0.237637	-0.400019	1.165898	-0.196742	-0.259794	1.417207	0.022915	-0.272115	1.471721	0.000286	-0.245252	1.508165	0.044936	-0.221805	1.460386	0.069803	0.159892	1.533124	0.101332	0.116627	1.476316	0.147986	0.121104	1.528895	0.124376	0.171404	1.481299	0.113717	0.093574	1.567262	0.065660	0.115190	1.361052	0.082101	-0.114753	1.548231	0.099308	0.111291	1.498955	0.141888
4600	46.000000	0.032661	1.661623	-0.024087	0.013192	1.428334	-0.113687	-0.304094	1.394448	-0.100950	-0.245778	1.391051	-0.140217	-0.402612	1.161889	-0.276996	-0.379735	1.122434	-0.237890	-0.143133	1.550504	0.114816	-0.418052	1.194185	-0.231092	-0.434165	1.150356	-0.259376	-0.423983	1.133401	-0.239524	-0.401168	1.167620	-0.198513	-0.260019	1.417665	0.022098	-0.272166	1.472214	-0.000441	-0.245288	1.508501	0.044310	-0.221965	1.460685	0.069083	0.159807	1.533011	0.101377	0.116557	1.476060	0.147758	0.120993	1.528608	0.124297	0.171314	1.481179	0.113727	0.093597	1.567274	0.065693	0.115077	1.361033	0.081907	-0.114679	1.548190	0.098834	0.111145	1.498809	0.141852
4601	46.010000	0.032893	1.661769	-0.024061	0.013488	1.428599	-0.113986	-0.304302	1.395252	-0.101789	-0.245987	1.391821	-0.141055	-0.403976	1.163980	-0.278772	-0.381021	1.124234	-0.240009	-0.143216	1.550558	0.114370	-0.419146	1.196172	-0.232646	-0.435744	1.152471	-0.261208	-0.425275	1.135409	-0.241413	-0.402306	1.169308	-0.200294	-0.260226	1.418156	0.021213	-0.272201	1.472804	-0.001269	-0.245334	1.508908	0.043673	-0.222167	1.461022	0.068430	0.159765	1.532901	0.101480	0.116456	1.475822	0.147589	0.120844	1.528340	0.124239	0.171203	1.481019	0.113752	0.093615	1.567280	0.065718	0.114969	1.361009	0.081717	-0.114603	1.548168	0.098359	0.110959	1.498632	0.141851
4602	46.020000	0.033102	1.661891	-0.024044	0.013759	1.428832	-0.114268	-0.304519	1.396073	-0.102610	-0.246204	1.392600	-0.141874	-0.405334	1.166054	-0.280468	-0.382311	1.126025	-0.242038	-0.143301	1.550599	0.113946	-0.420187	1.198025	-0.234165	-0.437260	1.154373	-0.263179	-0.426587	1.137316	-0.243278	-0.403391	1.170952	-0.201969	-0.260480	1.418675	0.020415	-0.272253	1.473410	-0.002017	-0.245322	1.509344	0.043028	-0.222363	1.461296	0.067764	0.159662	1.532749	0.101579	0.116256	1.475686	0.147590	0.120834	1.528331	0.124313	0.171068	1.480893	0.113844	0.093623	1.567275	0.065736	0.114862	1.360977	0.081539	-0.114526	1.548163	0.097889	0.110773	1.498503	0.141841
4603	46.030000	0.033286	1.661976	-0.024052	0.014010	1.429009	-0.114528	-0.304737	1.396906	-0.103414	-0.246423	1.393388	-0.142674	-0.406678	1.168099	-0.282080	-0.383602	1.127800	-0.243965	-0.143389	1.550618	0.113537	-0.421210	1.199749	-0.235521	-0.438469	1.156509	-0.264532	-0.427784	1.139138	-0.244916	-0.404352	1.172468	-0.203573	-0.260730	1.419206	0.019667	-0.272349	1.473985	-0.002630	-0.245330	1.509802	0.042403	-0.222496	1.461644	0.067045	0.159581	1.532640	0.101684	0.116084	1.475578	0.147573	0.120709	1.528245	0.124348	0.170948	1.480762	0.113922	0.093622	1.567253	0.065740	0.114760	1.360932	0.081385	-0.114453	1.548173	0.097431	0.110610	1.498382	0.141788
4604	46.040000	0.033437	1.662022	-0.024077	0.014219	1.429130	-0.114756	-0.304951	1.397744	-0.104197	-0.246635	1.394176	-0.143451	-0.408009	1.170122	-0.283613	-0.384898	1.129558	-0.245802	-0.143480	1.550620	0.113164	-0.422259	1.201454	-0.236712	-0.439668	1.158373	-0.265784	-0.428903	1.140874	-0.246447	-0.405215	1.173927	-0.205007	-0.260947	1.419707	0.018953	-0.272452	1.474557	-0.003226	-0.245341	1.510253	0.041872	-0.222678	1.462005	0.066472	0.159508	1.532565	0.101808	0.115883	1.475509	0.147570	0.120530	1.528131	0.124370	0.170806	1.480684	0.114015	0.093608	1.567213	0.065734	0.114654	1.360873	0.081256	-0.114381	1.548195	0.096990	0.110472	1.498318	0.141795
4605	46.050000	0.033559	1.662023	-0.024130	0.014392	1.429181	-0.114951	-0.305154	1.398582	-0.104961	-0.246835	1.394962	-0.144204	-0.409321	1.172114	-0.285067	-0.386193	1.131293	-0.247543	-0.143572	1.550604	0.112821	-0.423298	1.203134	-0.237905	-0.440521	1.160275	-0.266980	-0.430258	1.142640	-0.247946	-0.406179	1.175394	-0.206431	-0.261161	1.420247	0.018263	-0.272530	1.475189	-0.003852	-0.245345	1.510688	0.041337	-0.222798	1.462376	0.065871	0.159390	1.532484	0.101904	0.115693	1.475456	0.147589	0.120412	1.528089	0.124384	0.170667	1.480598	0.114104	0.093583	1.567150	0.065713	0.114547	1.360797	0.081159	-0.114313	1.548228	0.096570	0.110310	1.498268	0.141794
4606	46.060000	0.033653	1.661977	-0.024210	0.014525	1.429164	-0.115113	-0.305342	1.399414	-0.105702	-0.247018	1.395742	-0.144933	-0.410608	1.174076	-0.286447	-0.387484	1.133005	-0.249194	-0.143664	1.550573	0.112511	-0.424404	1.204870	-0.239074	-0.441532	1.162351	-0.268301	-0.431058	1.144673	-0.249303	-0.407216	1.176963	-0.207744	-0.261323	1.420690	0.017629	-0.272591	1.475713	-0.004379	-0.245328	1.511059	0.040891	-0.222857	1.462648	0.065339	0.159249	1.532364	0.101973	0.115504	1.475399	0.147582	0.120345	1.528049	0.124440	0.170539	1.480509	0.114191	0.093549	1.567065	0.065677	0.114439	1.360702	0.081094	-0.114248	1.548268	0.096174	0.110153	1.498210	0.141791
4607	46.070000	0.033723	1.661893	-0.024311	0.014614	1.429089	-0.115240	-0.305511	1.400234	-0.106420	-0.247179	1.396511	-0.145634	-0.411869	1.176011	-0.287759	-0.388767	1.134693	-0.250767	-0.143753	1.550534	0.112241	-0.425499	1.206739	-0.240219	-0.443775	1.163964	-0.270052	-0.432787	1.146360	-0.250759	-0.408423	1.178563	-0.209072	-0.261449	1.421113	0.016961	-0.272655	1.476234	-0.004951	-0.245309	1.511417	0.040460	-0.222903	1.462879	0.064717	0.159198	1.532311	0.102031	0.115333	1.475332	0.147559	0.120236	1.528001	0.124445	0.170433	1.480423	0.114241	0.093508	1.566961	0.065628	0.114325	1.360591	0.081057	-0.114183	1.548315	0.095804	0.110014	1.498144	0.141767
4608	46.080000	0.033780	1.661770	-0.024439	0.014674	1.428954	-0.115340	-0.305659	1.401039	-0.107113	-0.247318	1.397269	-0.146309	-0.413094	1.177912	-0.289006	-0.390031	1.136353	-0.252260	-0.143835	1.550487	0.111995	-0.426597	1.208483	-0.241423	-0.444915	1.166234	-0.271193	-0.434115	1.148212	-0.252188	-0.409523	1.180194	-0.210352	-0.261559	1.421579	0.016248	-0.272697	1.476690	-0.005462	-0.245290	1.511826	0.039946	-0.223015	1.463169	0.064089	0.159119	1.532225	0.102071	0.115194	1.475257	0.147521	0.120163	1.527919	0.124420	0.170345	1.480336	0.114262	0.093467	1.566837	0.065564	0.114213	1.360464	0.081047	-0.114120	1.548367	0.095461	0.109868	1.498068	0.141734
4609	46.090000	0.033827	1.661623	-0.024580	0.014699	1.428784	-0.115416	-0.305784	1.401825	-0.107779	-0.247432	1.398012	-0.146955	-0.414283	1.179785	-0.290197	-0.391271	1.137988	-0.253690	-0.143906	1.550444	0.111784	-0.427631	1.210335	-0.242500	-0.446268	1.168023	-0.272596	-0.435309	1.150129	-0.253478	-0.410685	1.181802	-0.211629	-0.261679	1.422041	0.015601	-0.272679	1.477234	-0.006070	-0.245306	1.512236	0.039488	-0.223160	1.463501	0.063580	0.159092	1.532112	0.102113	0.115048	1.475122	0.147445	0.120086	1.527820	0.124402	0.170286	1.480210	0.114312	0.093429	1.566700	0.065490	0.114097	1.360326	0.081054	-0.114054	1.548422	0.095144	0.109766	1.497964	0.141683
4610	46.100000	0.033879	1.661459	-0.024734	0.014706	1.428587	-0.115476	-0.305885	1.402591	-0.108417	-0.247522	1.398739	-0.147573	-0.415427	1.181624	-0.291336	-0.392477	1.139595	-0.255058	-0.143962	1.550408	0.111594	-0.428600	1.212085	-0.243596	-0.447295	1.170156	-0.273584	-0.436174	1.152154	-0.254673	-0.411734	1.183371	-0.212790	-0.261776	1.422528	0.014982	-0.272681	1.477771	-0.006617	-0.245271	1.512618	0.039053	-0.223230	1.463841	0.063102	0.159194	1.532020	0.102152	0.114883	1.475010	0.147422	0.120049	1.527717	0.124367	0.170365	1.480096	0.114348	0.093401	1.566554	0.065407	0.113983	1.360178	0.081072	-0.113984	1.548480	0.094853	0.109674	1.497828	0.141609
